Coordinates
version=1
nRows=37
nColumns=11
inDegrees=yes

Units are S.I. units (second, meters, Newtons, ...)
If the header above contains a line with 'inDegrees', this indicates whether rotational values are in degrees (yes) or radians (no).

endheader
time	pelvis_tilt	pelvis_tx	pelvis_ty	hip_flexion_l	hip_flexion_r	knee_angle_l	knee_angle_r	ankle_angle_l	ankle_angle_r	lumbar_extension
      2.05000000	     -4.80936599	     -0.49355088	      0.89375749	     34.26602986	     -2.70488291	    -39.85946283	    -42.68691970	      7.80195742	    -22.28323526	      0.91063183
      2.06000000	     -4.84321002	     -0.48240596	      0.89617655	     33.24512399	     -1.28982005	    -39.39166034	    -43.94005437	      8.25756583	    -21.03696922	      0.87133775
      2.07000000	     -4.94162192	     -0.47141558	      0.89861345	     32.23723302	      0.27069647	    -38.83301038	    -45.07464996	      8.72720835	    -19.74826323	      0.91592187
      2.08000000	     -5.01206884	     -0.46056776	      0.90114356	     31.16138938	      1.87904313	    -38.16724647	    -46.13812591	      9.08449097	    -18.37058703	      0.92996925
      2.09000000	     -5.11299997	     -0.44993256	      0.90368785	     30.08317078	      3.58914702	    -37.40470166	    -47.11443409	      9.36485309	    -17.04659247	      0.98234589
      2.10000000	     -5.16206809	     -0.43921981	      0.90622320	     28.91741324	      5.26821484	    -36.57973341	    -47.96992745	      9.64026702	    -15.85602494	      0.98227770
      2.11000000	     -5.24607919	     -0.42868996	      0.90876595	     27.74266558	      7.03824661	    -35.66847983	    -48.80228651	      9.96833909	    -14.65540022	      1.04013203
      2.12000000	     -5.24002165	     -0.41835148	      0.91124605	     26.50344760	      8.78009877	    -34.76312813	    -49.56261198	     10.18382392	    -13.56429912	      0.96182629
      2.13000000	     -5.24926738	     -0.40820682	      0.91350816	     25.28487861	     10.58595656	    -33.83335991	    -50.33317083	     10.39063188	    -12.57086662	      0.88201025
      2.14000000	     -5.24090104	     -0.39816319	      0.91557486	     24.06427250	     12.40528527	    -32.90921113	    -50.98744534	     10.59255515	    -11.66026584	      0.77203682
      2.15000000	     -5.13862021	     -0.38824517	      0.91749067	     22.70917395	     14.14433230	    -31.91062844	    -51.51976535	     10.77412324	    -10.93875277	      0.54414247
      2.16000000	     -5.05212577	     -0.37822394	      0.91904056	     21.50534836	     15.86949286	    -31.17931249	    -51.98230332	     11.05874321	    -10.13712230	      0.33522993
      2.17000000	     -4.92353099	     -0.36840912	      0.92034152	     20.24050347	     17.54767479	    -30.37532389	    -52.27888895	     11.33032670	     -9.59075572	      0.02758404
      2.18000000	     -4.79798592	     -0.35849346	      0.92131009	     19.01218804	     19.20099493	    -29.65220158	    -52.44641810	     11.69908935	     -8.87033945	     -0.25452111
      2.19000000	     -4.61061179	     -0.34854017	      0.92199608	     17.74351463	     20.75082258	    -28.98935809	    -52.47864554	     12.09459648	     -8.42497765	     -0.60170700
      2.20000000	     -4.33225048	     -0.33858333	      0.92257048	     16.40783037	     22.10953692	    -28.38056685	    -52.31920268	     12.53913741	     -7.82619374	     -1.07067243
      2.21000000	     -4.10884488	     -0.32877036	      0.92265055	     15.22268974	     23.53760969	    -27.92381901	    -52.02247737	     13.02665714	     -7.65345887	     -1.48587451
      2.22000000	     -3.75281233	     -0.31875360	      0.92260110	     13.92583360	     24.73288858	    -27.56724949	    -51.58338355	     13.58421783	     -7.27645344	     -2.04032730
      2.23000000	     -3.38942041	     -0.30877001	      0.92223014	     12.69162668	     25.86295339	    -27.33711785	    -50.96838611	     14.19048349	     -6.86724409	     -2.60746962
      2.24000000	     -2.87041920	     -0.29850314	      0.92177452	     11.33027465	     26.71359023	    -27.20115686	    -50.16417139	     14.82623265	     -6.62010285	     -3.31910151
      2.25000000	     -2.31838190	     -0.28817840	      0.92109385	      9.92360254	     27.42793734	    -27.06231610	    -49.11943534	     15.48067389	     -6.53117026	     -4.07024621
      2.26000000	     -1.66618272	     -0.27766633	      0.92024258	      8.48981709	     27.92801639	    -27.09071491	    -47.95585908	     16.20082870	     -6.38541643	     -4.90816214
      2.27000000	     -0.95783155	     -0.26687822	      0.91909212	      7.08639312	     28.23097599	    -27.34148982	    -46.52298003	     17.00840262	     -6.22725838	     -5.77399116
      2.28000000	     -0.20475229	     -0.25595115	      0.91785047	      5.61910766	     28.34904848	    -27.58515477	    -44.86219296	     17.84275454	     -6.18454624	     -6.67862288
      2.29000000	      0.51370022	     -0.24498725	      0.91628683	      4.22198381	     28.34215497	    -27.90400233	    -42.92672314	     18.68133019	     -6.05682748	     -7.52904538
      2.30000000	      1.20698360	     -0.23395039	      0.91454509	      2.84848823	     28.22524374	    -28.24042007	    -40.73770184	     19.50253349	     -6.01508081	     -8.34049416
      2.31000000	      1.90945165	     -0.22257595	      0.91266790	      1.45862912	     27.88683398	    -28.60674952	    -38.23620470	     20.28335058	     -6.04217785	     -9.12010913
      2.32000000	      2.58923310	     -0.21115445	      0.91060706	      0.12213058	     27.42337580	    -28.99433815	    -35.50348118	     20.98671459	     -6.07384191	     -9.86738334
      2.33000000	      3.22534786	     -0.19944371	      0.90841141	     -1.16601565	     26.86300108	    -29.47434661	    -32.62615014	     21.72040529	     -5.96654705	    -10.52713528
      2.34000000	      3.78553207	     -0.18758531	      0.90601791	     -2.37132161	     26.27704721	    -29.96416914	    -29.66023573	     22.32644259	     -6.05095461	    -11.07564283
      2.35000000	      4.33962501	     -0.17543595	      0.90369696	     -3.60048670	     25.53705933	    -30.46065222	    -26.61790941	     22.89756852	     -5.92067464	    -11.58901602
      2.36000000	      4.75473427	     -0.16316648	      0.90126606	     -4.67491334	     24.92998030	    -30.95562198	    -23.76790371	     23.25275923	     -5.77563361	    -11.94091281
      2.37000000	      5.11525471	     -0.15060237	      0.89893451	     -5.72396318	     24.32529284	    -31.41349635	    -21.13978532	     23.47031799	     -5.70902313	    -12.20000576
      2.38000000	      5.38983316	     -0.13784889	      0.89673368	     -6.64469311	     23.79810967	    -31.92961793	    -18.88177004	     23.48201996	     -5.73798813	    -12.34216892
      2.39000000	      5.54904902	     -0.12484335	      0.89456514	     -7.40224609	     23.44147964	    -32.53006746	    -17.17019648	     23.28208411	     -5.83820378	    -12.33730218
      2.40000000	      5.56153458	     -0.11165905	      0.89237735	     -7.94789629	     23.28468301	    -33.21154017	    -15.99256669	     22.89312821	     -6.07487455	    -12.15624708
      2.41000000	      5.46226568	     -0.09812543	      0.89034599	     -8.33614983	     23.22195318	    -33.93148427	    -15.35248907	     22.10263297	     -6.31577185	    -11.80542820
